<svg id="그룹_35697" data-name="그룹 35697" xmlns="http://www.w3.org/2000/svg" xmlns:xlink="http://www.w3.org/1999/xlink" width="55" height="55.406" viewBox="0 0 55 55.406">
  <defs>
    <clipPath id="clip-path">
      <path id="패스_25201" data-name="패스 25201" d="M34.917,0a1.611,1.611,0,0,0-1.611,1.611V28.046a1.611,1.611,0,1,0,3.222,0V16.215c.023,0,.045.007.069.007h3.7A11.493,11.493,0,0,1,51.778,27.7V43.788H3.222V27.7c0-6.438,4.824-11.48,10.984-11.48S25.19,21.265,25.19,27.7V38.122a1.611,1.611,0,1,0,3.221,0V27.7c0-8.244-6.24-14.7-14.206-14.7S0,19.459,0,27.7V45.4a1.611,1.611,0,0,0,1.611,1.611H26.029V53.8a1.611,1.611,0,1,0,3.221,0V47.009H53.389A1.611,1.611,0,0,0,55,45.4V27.7A14.719,14.719,0,0,0,40.3,13H36.6c-.023,0-.045.006-.069.006V3.222H45.62V6.709H40.794a1.611,1.611,0,0,0,0,3.222h6.437a1.611,1.611,0,0,0,1.611-1.611V1.611A1.611,1.611,0,0,0,47.231,0Z" fill="#999"/>
    </clipPath>
    <clipPath id="clip-path-2">
      <path id="패스_25202" data-name="패스 25202" d="M59.862,31.254A1.658,1.658,0,1,0,61.52,29.6a1.658,1.658,0,0,0-1.658,1.657" transform="translate(-59.862 -29.597)" fill="#999"/>
    </clipPath>
  </defs>
  <g id="그룹_35530" data-name="그룹 35530">
    <g id="그룹_35529" data-name="그룹 35529" clip-path="url(#clip-path)">
      <rect id="사각형_9277" data-name="사각형 9277" width="55" height="55.406" transform="translate(0 0)" fill="#999"/>
    </g>
  </g>
  <g id="그룹_35532" data-name="그룹 35532" transform="translate(27.52 13.607)">
    <g id="그룹_35531" data-name="그룹 35531" clip-path="url(#clip-path-2)">
      <rect id="사각형_9278" data-name="사각형 9278" width="3.315" height="3.315" transform="translate(0 0)" fill="#999"/>
    </g>
  </g>
</svg>
