<svg xmlns="http://www.w3.org/2000/svg" xmlns:xlink="http://www.w3.org/1999/xlink" width="60" height="60" viewBox="0 0 60 60">
  <defs>
    <clipPath id="clip-path">
      <path id="패스_4280" data-name="패스 4280" d="M24.308,39.793v0m0-.021v0m1.118-1.332a1.407,1.407,0,0,0-1.118,1.327,1.4,1.4,0,0,1,1.118-1.327M16.517,0A16.419,16.419,0,0,0,5.271,4.457a16.581,16.581,0,0,0,2.157,25.95,1.407,1.407,0,1,0,1.555-2.344,13.769,13.769,0,1,1,15.2,0,1.408,1.408,0,0,0-.63,1.172v1.26a1.934,1.934,0,0,1-1.932,1.932H6.709a4.4,4.4,0,0,0-.007,8.8s4.728.025,9.469.037c2.371.006,4.746.009,6.535,0,.642,0,1.168,0,1.6-.006v.2a4.123,4.123,0,0,1-4.119,4.119H12.974a4.117,4.117,0,0,1-3.416-1.817,1.407,1.407,0,0,0-2.332,1.575,6.929,6.929,0,0,0,5.747,3.055h7.215a6.94,6.94,0,0,0,6.932-6.933V39.817a1.407,1.407,0,0,0-1.406-1.407,1.468,1.468,0,0,0-.212.016c-1.124.055-11.775.021-18.794-.016a1.585,1.585,0,1,1,0-3.169h14.91a4.751,4.751,0,0,0,4.746-4.746v-.527A16.58,16.58,0,0,0,17.758.041Q17.175,0,16.6,0Z" fill="#162544"/>
    </clipPath>
    <clipPath id="clip-path-2">
      <path id="패스_4281" data-name="패스 4281" d="M67.991,83.269a1.407,1.407,0,0,0,0,1.99,1.573,1.573,0,0,1,.464,1.121,1.407,1.407,0,0,0,2.814,0,4.371,4.371,0,0,0-1.288-3.11,1.407,1.407,0,0,0-1.99,0" transform="translate(-67.579 -82.857)" fill="#162544"/>
    </clipPath>
    <clipPath id="clip-path-3">
      <path id="패스_4282" data-name="패스 4282" d="M19.63,18.036A10.5,10.5,0,0,0,16.3,25.687a1.407,1.407,0,0,0,2.814,0,7.65,7.65,0,0,1,8.2-7.631,1.407,1.407,0,1,0,.194-2.807q-.377-.027-.752-.026a10.364,10.364,0,0,0-7.127,2.813" transform="translate(-16.304 -15.223)" fill="#e62f43"/>
    </clipPath>
  </defs>
  <g id="quick_icon04" transform="translate(-1047 -1072)">
    <rect id="사각형_9371" data-name="사각형 9371" width="60" height="60" transform="translate(1047 1072)" fill="#fff"/>
    <g id="그룹_6543" data-name="그룹 6543" transform="translate(1060 1078)">
      <g id="그룹_6538" data-name="그룹 6538">
        <g id="그룹_6537" data-name="그룹 6537" clip-path="url(#clip-path)">
          <rect id="사각형_2648" data-name="사각형 2648" width="33.615" height="48.388" transform="translate(0)" fill="#162544"/>
        </g>
      </g>
      <g id="그룹_6540" data-name="그룹 6540" transform="translate(27.162 33.303)">
        <g id="그룹_6539" data-name="그룹 6539" clip-path="url(#clip-path-2)">
          <rect id="사각형_2649" data-name="사각형 2649" width="3.827" height="4.929" transform="translate(-0.138 0)" fill="#162544"/>
        </g>
      </g>
      <g id="그룹_6542" data-name="그룹 6542" transform="translate(6.553 6.119)">
        <g id="그룹_6541" data-name="그룹 6541" clip-path="url(#clip-path-3)">
          <rect id="사각형_2650" data-name="사각형 2650" width="12.564" height="11.87" transform="translate(0 0)" fill="#e62f43"/>
        </g>
      </g>
    </g>
  </g>
</svg>
