<svg xmlns="http://www.w3.org/2000/svg" xmlns:xlink="http://www.w3.org/1999/xlink" width="60" height="60" viewBox="0 0 60 60">
  <defs>
    <clipPath id="clip-path">
      <path id="패스_25222" data-name="패스 25222" d="M38.259.13l-22,10.635H7.822a7.821,7.821,0,1,0,0,15.643,1.3,1.3,0,0,0,0-2.609,5.212,5.212,0,1,1,0-10.425h8.734a1.305,1.305,0,0,0,.568-.13l20.4-9.86V13.846a1.3,1.3,0,0,0,1.3,1.3,3.435,3.435,0,0,1,0,6.87,1.3,1.3,0,0,0-1.3,1.3V33.788L17.293,24.01a3.031,3.031,0,0,0-1.556-.242c-.5,0-1.153,0-1.81,0-1.306.009-2.608.027-2.608.027a1.3,1.3,0,0,0-1.287,1.3V37.238a5.985,5.985,0,0,0,11.969,0V34.152a1.3,1.3,0,1,0-2.609,0v3.086a3.375,3.375,0,0,1-6.751,0V26.392c1.557-.016,3.022-.022,3.564-.01l22.054,10.66a1.3,1.3,0,0,0,1.872-1.174V24.489a6.045,6.045,0,0,0,0-11.8V1.3A1.3,1.3,0,0,0,38.259.13" fill="#162544"/>
    </clipPath>
    <clipPath id="clip-path-2">
      <path id="패스_25223" data-name="패스 25223" d="M40.919,39.98v5.332a1.3,1.3,0,0,0,2.609,0V39.98a1.3,1.3,0,0,0-2.609,0" transform="translate(-40.919 -38.675)" fill="#e62f43"/>
    </clipPath>
    <clipPath id="clip-path-3">
      <path id="패스_25224" data-name="패스 25224" d="M51.824,80.742A1.342,1.342,0,1,0,53.166,79.4a1.342,1.342,0,0,0-1.342,1.342" transform="translate(-51.824 -79.4)" fill="#152442"/>
    </clipPath>
  </defs>
  <g id="quick_icon06" transform="translate(-1513 -1072)">
    <rect id="사각형_9373" data-name="사각형 9373" width="60" height="60" transform="translate(1513 1072)" fill="#fff"/>
    <g id="그룹_35555" data-name="그룹 35555" transform="translate(1521 1080)">
      <g id="그룹_35554" data-name="그룹 35554" clip-path="url(#clip-path)">
        <rect id="사각형_9284" data-name="사각형 9284" width="44.871" height="43.223" transform="translate(0)" fill="#162544"/>
      </g>
    </g>
    <g id="그룹_35557" data-name="그룹 35557" transform="translate(1536.252 1094.415)">
      <g id="그룹_35556" data-name="그룹 35556" clip-path="url(#clip-path-2)">
        <rect id="사각형_9285" data-name="사각형 9285" width="2.609" height="7.941" transform="translate(0 0)" fill="#e62f43"/>
      </g>
    </g>
    <g id="그룹_35559" data-name="그룹 35559" transform="translate(1540.316 1109.595)">
      <g id="그룹_35558" data-name="그룹 35558" clip-path="url(#clip-path-3)">
        <rect id="사각형_9286" data-name="사각형 9286" width="2.684" height="2.684" fill="#152442"/>
      </g>
    </g>
  </g>
</svg>
