<svg xmlns="http://www.w3.org/2000/svg" xmlns:xlink="http://www.w3.org/1999/xlink" width="60" height="60" viewBox="0 0 60 60">
  <defs>
    <clipPath id="clip-path">
      <path id="패스_4278" data-name="패스 4278" d="M16.569,0A8.631,8.631,0,0,0,7.948,8.62v4.5H7.462A7.47,7.47,0,0,0,0,20.578V32.249a7.47,7.47,0,0,0,7.216,7.457v4.9a1.375,1.375,0,0,0,2.348.972l5.872-5.872h10.6A7.47,7.47,0,0,0,33.5,32.249V20.578a7.47,7.47,0,0,0-7.462-7.462h-9.1a1.375,1.375,0,0,0,0,2.75h9.1a4.717,4.717,0,0,1,4.711,4.711V32.249a4.716,4.716,0,0,1-4.711,4.711H14.866a1.376,1.376,0,0,0-.972.4L9.967,41.29V38.335A1.375,1.375,0,0,0,8.591,36.96H7.462A4.717,4.717,0,0,1,2.75,32.249V20.578a4.717,4.717,0,0,1,4.711-4.711H9.323A1.375,1.375,0,0,0,10.7,14.491V8.62a5.877,5.877,0,0,1,5.87-5.87H38.68a5.878,5.878,0,0,1,5.871,5.87V22.514a5.878,5.878,0,0,1-5.871,5.871H37.335A1.375,1.375,0,0,0,35.96,29.76v4.219a1.376,1.376,0,0,0-1.652,2.169L36.363,38.2a1.375,1.375,0,0,0,2.348-.972V31.135A8.631,8.631,0,0,0,47.3,22.514V8.62A8.631,8.631,0,0,0,38.68,0Z" transform="translate(0 0.001)" fill="#162544"/>
    </clipPath>
    <clipPath id="clip-path-2">
      <path id="패스_4279" data-name="패스 4279" d="M30.21,35.335a1.254,1.254,0,1,0,1.254-1.254,1.254,1.254,0,0,0-1.254,1.254" transform="translate(-30.21 -34.081)" fill="#e62f43"/>
    </clipPath>
  </defs>
  <g id="quick_icon03" transform="translate(-813 -1072)">
    <rect id="사각형_9370" data-name="사각형 9370" width="60" height="60" transform="translate(813 1072)" fill="#fff"/>
    <g id="그룹_6536" data-name="그룹 6536" transform="translate(819 1079.001)">
      <g id="그룹_6533" data-name="그룹 6533" transform="translate(0 -0.001)">
        <g id="그룹_6532" data-name="그룹 6532" clip-path="url(#clip-path)">
          <rect id="사각형_2646" data-name="사각형 2646" width="47.301" height="45.986" transform="translate(0 0)" fill="#162544"/>
        </g>
      </g>
      <g id="그룹_6535" data-name="그룹 6535" transform="translate(11.87 13.39)">
        <g id="그룹_6534" data-name="그룹 6534" clip-path="url(#clip-path-2)">
          <rect id="사각형_2647" data-name="사각형 2647" width="2.507" height="2.508" fill="#e62f43"/>
        </g>
      </g>
    </g>
  </g>
</svg>
